<?xml version="1.0" encoding="UTF-8"?>
<!DOCTYPE svg PUBLIC "-//W3C//DTD SVG 1.1//EN" "http://www.w3.org/Graphics/SVG/1.1/DTD/svg11.dtd">
<svg xmlns="http://www.w3.org/2000/svg" version="1.1" width="360px" height="305px" style="shape-rendering:geometricPrecision; text-rendering:geometricPrecision; image-rendering:optimizeQuality; fill-rule:evenodd; clip-rule:evenodd" xmlns:xlink="http://www.w3.org/1999/xlink">
<g><path style="opacity:0.899" fill="#040404" d="M 178.5,-0.5 C 181.833,-0.5 185.167,-0.5 188.5,-0.5C 208.637,53.4064 229.47,107.073 251,160.5C 287.037,194.039 323.203,227.373 359.5,260.5C 359.5,265.833 359.5,271.167 359.5,276.5C 299.539,262.51 239.539,248.51 179.5,234.5C 124.181,247.397 68.8479,260.23 13.5,273C 8.55106,273.898 3.8844,275.398 -0.5,277.5C -0.5,274.167 -0.5,270.833 -0.5,267.5C 38.7632,232.408 77.5965,196.741 116,160.5C 137.53,107.073 158.363,53.4064 178.5,-0.5 Z"/></g>
<g><path style="opacity:1" fill="#fefefe" d="M 356.5,267.5 C 355.833,267.5 355.5,267.833 355.5,268.5C 296.755,254.772 237.922,241.439 179,228.5C 125.425,240.268 71.9254,252.435 18.5,265C 16.5,265.667 14.5,265.667 12.5,265C 48.9051,231.383 85.4051,197.883 122,164.5C 142.241,112.358 162.741,60.358 183.5,8.5C 204.259,60.358 224.759,112.358 245,164.5C 282.664,198.332 319.83,232.665 356.5,267.5 Z"/></g>
</svg>
